# xmcd CD database file generated by Grip 3.2.0
# 
# Track frame offsets:
#       182
#       20187
#       39385
#       72120
#       95012
#       112262
#       130340
#       151295
#       175800
#       199495
# 
# Disc length: 2969 seconds
# 
# Revision: 7
# Processed by: cddbd v1.5.1PL0 Copyright (c) Steve Scherf et al.
# Submitted via: Grip 3.2.0
# 
DISCID=910b970a
DTITLE=The Robert Cray Band - I Was Warned
DYEAR=1992
DGENRE=Blues
TTITLE0=Just A Loser
TTITLE1=I'm A Good Man
TTITLE2=I Was Warned
TTITLE3=The Price I Pay
TTITLE4=Won The Battle
TTITLE5=On The Road Down
TTITLE6=A Whole Lotta Pride
TTITLE7=A Picture Of A Broken Heart
TTITLE8=He Don't Live Here Anymore
TTITLE9=Our Last Time
EXTD=
EXTT0=
EXTT1=
EXTT2=
EXTT3=
EXTT4=
EXTT5=
EXTT6=
EXTT7=
EXTT8=
EXTT9=
PLAYORDER=
